<?xml version="1.0" encoding="utf-8"?>
<svg version="1.1" xmlns:xlink="http://www.w3.org/1999/xlink" width="104px" height="111px" xmlns="http://www.w3.org/2000/svg">
  <g transform="matrix(1 0 0 1 -2984 -784 )">
    <path d="M 2985 788  A 3 3 0 0 1 2988 785 L 3084 785  A 3 3 0 0 1 3087 788 L 3087 891  A 3 3 0 0 1 3084 894 L 2988 894  A 3 3 0 0 1 2985 891 L 2985 788  Z " fill-rule="nonzero" fill="#ffffff" stroke="none" />
    <path d="M 2984.5 788  A 3.5 3.5 0 0 1 2988 784.5 L 3084 784.5  A 3.5 3.5 0 0 1 3087.5 788 L 3087.5 891  A 3.5 3.5 0 0 1 3084 894.5 L 2988 894.5  A 3.5 3.5 0 0 1 2984.5 891 L 2984.5 788  Z " stroke-width="1" stroke-dasharray="9,4" stroke="#d9d9d9" fill="none" stroke-dashoffset="0.5" />
  </g>
</svg>